<?xml version="1.0" encoding="UTF-8" standalone="no"?>
<svg
   xmlns:dc="http://purl.org/dc/elements/1.1/"
   xmlns:cc="http://creativecommons.org/ns#"
   xmlns:rdf="http://www.w3.org/1999/02/22-rdf-syntax-ns#"
   xmlns:svg="http://www.w3.org/2000/svg"
   xmlns="http://www.w3.org/2000/svg"
   xmlns:xlink="http://www.w3.org/1999/xlink"
   xmlns:sodipodi="http://sodipodi.sourceforge.net/DTD/sodipodi-0.dtd"
   xmlns:inkscape="http://www.inkscape.org/namespaces/inkscape"
   version="1.1"
   viewBox="0 0 48 48"
   id="svg29"
   sodipodi:docname="blue-folder-documents.svg"
   inkscape:version="0.92.4 5da689c313, 2019-01-14">
  <metadata
     id="metadata33">
    <rdf:RDF>
      <cc:Work
         rdf:about="">
        <dc:format>image/svg+xml</dc:format>
        <dc:type
           rdf:resource="http://purl.org/dc/dcmitype/StillImage" />
        <dc:title></dc:title>
      </cc:Work>
    </rdf:RDF>
  </metadata>
  <sodipodi:namedview
     pagecolor="#ffffff"
     bordercolor="#666666"
     borderopacity="1"
     objecttolerance="10"
     gridtolerance="10"
     guidetolerance="10"
     inkscape:pageopacity="0"
     inkscape:pageshadow="2"
     inkscape:window-width="1366"
     inkscape:window-height="768"
     id="namedview31"
     showgrid="true"
     inkscape:zoom="19.666667"
     inkscape:cx="16.87687"
     inkscape:cy="14.28342"
     inkscape:window-x="0"
     inkscape:window-y="0"
     inkscape:window-maximized="1"
     inkscape:current-layer="svg29"
     showguides="false">
    <inkscape:grid
       type="xygrid"
       id="grid899" />
  </sodipodi:namedview>
  <defs
     id="defs7">
    <linearGradient
       id="linearGradient857"
       inkscape:collect="always">
      <stop
         id="stop853"
         offset="0"
         style="stop-color:#01b6ed;stop-opacity:1" />
      <stop
         id="stop855"
         offset="1"
         style="stop-color:#00a5a5;stop-opacity:1" />
    </linearGradient>
    <linearGradient
       id="bg"
       x1="1"
       x2="47"
       gradientTransform="matrix(0 -1 1 0 -1.5e-6 48)"
       gradientUnits="userSpaceOnUse">
      <stop
         style="stop-color:#2684da"
         offset="0"
         id="stop2" />
      <stop
         style="stop-color:#3f96e5"
         offset="1"
         id="stop4" />
    </linearGradient>
    <linearGradient
       inkscape:collect="always"
       xlink:href="#linearGradient857"
       id="linearGradient849"
       x1="3.0531012"
       y1="29.63907"
       x2="46.416174"
       y2="29.63907"
       gradientUnits="userSpaceOnUse"
       gradientTransform="matrix(1.0393436,0,0,1.0393436,-1.5483774,0.34046948)" />
    <linearGradient
       inkscape:collect="always"
       xlink:href="#linearGradient857"
       id="linearGradient851"
       x1="3.0509131"
       y1="15.737046"
       x2="26.93618"
       y2="15.737046"
       gradientUnits="userSpaceOnUse"
       gradientTransform="matrix(1.0393436,0,0,1.0393436,-1.5483774,0.34046948)" />
    <linearGradient
       inkscape:collect="always"
       xlink:href="#linearGradient857"
       id="linearGradient1004"
       x1="18.500999"
       y1="1029.3622"
       x2="29.500999"
       y2="1029.3622"
       gradientUnits="userSpaceOnUse" />
    <linearGradient
       inkscape:collect="always"
       xlink:href="#linearGradient857"
       id="linearGradient1220"
       x1="-35.249001"
       y1="1020.3622"
       x2="-23.249001"
       y2="1020.3622"
       gradientUnits="userSpaceOnUse" />
  </defs>
  <path
     d="m 2.0177156,14.889872 -0.00212,5.41522 22.1465824,0.0029 1.844266,-3.613518 -1.843761,-3.609184 H 18.428159 3.8689535 c -0.9218886,0 -1.8512379,0.902276 -1.8512379,1.804572 z"
     style="fill:none;stroke:url(#linearGradient851);stroke-width:1.30541563;stroke-miterlimit:4;stroke-dasharray:none;stroke-opacity:1"
     id="path21"
     inkscape:connector-curvature="0"
     sodipodi:nodetypes="ccccccsc" />
  <path
     d="M 46.301103,18.619338 V 45.592494 H 2.0177156 V 20.307982 H 24.162178 l 1.84376,-3.609183 h 18.450703 c 0.92189,0 1.84376,0.966301 1.84376,1.926137 z"
     style="fill:none;stroke:url(#linearGradient849);stroke-width:1.30541563;stroke-miterlimit:4;stroke-dasharray:none;stroke-opacity:1"
     id="path25"
     inkscape:connector-curvature="0"
     sodipodi:nodetypes="ccccccscc" />
  <g
     id="g986"
     transform="translate(0.999,-996.7577)"
     style="fill:none;stroke:url(#linearGradient1004);stroke-width:0.60000002;stroke-miterlimit:4;stroke-dasharray:none;stroke-opacity:1" />
  <g
     id="g1202"
     transform="translate(55.249,-988.3622)"
     style="fill:none;stroke:url(#linearGradient1220);stroke-width:0.7;stroke-miterlimit:4;stroke-dasharray:none">
    <path
       id="path1200"
       style="color:#000000;display:inline;visibility:visible;fill:none;fill-opacity:1;fill-rule:nonzero;stroke:url(#linearGradient1220);stroke-width:0.7;stroke-miterlimit:4;stroke-dasharray:none"
       d="m -33.249,1012.3622 h 5 l 5,5 v 9 c 0,1.108 -0.892,2 -2,2 h -8 c -1.108,0 -2,-0.892 -2,-2 v -12 c 0,-1.108 0.892,-2 2,-2 z m 0,2 v 12 h 8 v -9 h -3 v -3 z m 1.25,5 h 3.5 c 0.139,0 0.25,0.111 0.25,0.25 v 0.5 c 0,0.139 -0.111,0.25 -0.25,0.25 h -3.5 c -0.139,0 -0.25,-0.111 -0.25,-0.25 v -0.5 c 0,-0.139 0.111,-0.25 0.25,-0.25 z m 0,2 h 5.5 c 0.139,0 0.25,0.111 0.25,0.25 v 0.5 c 0,0.139 -0.111,0.25 -0.25,0.25 h -5.5 c -0.139,0 -0.25,-0.111 -0.25,-0.25 v -0.5 c 0,-0.139 0.111,-0.25 0.25,-0.25 z m 0,2 h 5.5 c 0.139,0 0.25,0.111 0.25,0.25 v 0.5 c 0,0.139 -0.111,0.25 -0.25,0.25 h -5.5 c -0.139,0 -0.25,-0.111 -0.25,-0.25 v -0.5 c 0,-0.139 0.111,-0.25 0.25,-0.25 z"
       inkscape:connector-curvature="0"
       sodipodi:nodetypes="sccsssssscccccccsssssssssssssssssssssssssss" />
  </g>
</svg>
