<?xml version="1.0" encoding="UTF-8" standalone="no"?>
<svg
   xmlns:dc="http://purl.org/dc/elements/1.1/"
   xmlns:cc="http://creativecommons.org/ns#"
   xmlns:rdf="http://www.w3.org/1999/02/22-rdf-syntax-ns#"
   xmlns:svg="http://www.w3.org/2000/svg"
   xmlns="http://www.w3.org/2000/svg"
   xmlns:xlink="http://www.w3.org/1999/xlink"
   xmlns:sodipodi="http://sodipodi.sourceforge.net/DTD/sodipodi-0.dtd"
   xmlns:inkscape="http://www.inkscape.org/namespaces/inkscape"
   version="1.1"
   viewBox="0 0 48 48"
   id="svg29"
   sodipodi:docname="blue-user-desktop.svg"
   inkscape:version="0.92.4 5da689c313, 2019-01-14">
  <metadata
     id="metadata33">
    <rdf:RDF>
      <cc:Work
         rdf:about="">
        <dc:format>image/svg+xml</dc:format>
        <dc:type
           rdf:resource="http://purl.org/dc/dcmitype/StillImage" />
        <dc:title></dc:title>
      </cc:Work>
    </rdf:RDF>
  </metadata>
  <sodipodi:namedview
     pagecolor="#ffffff"
     bordercolor="#666666"
     borderopacity="1"
     objecttolerance="10"
     gridtolerance="10"
     guidetolerance="10"
     inkscape:pageopacity="0"
     inkscape:pageshadow="2"
     inkscape:window-width="713"
     inkscape:window-height="669"
     id="namedview31"
     showgrid="true"
     inkscape:zoom="9.8333334"
     inkscape:cx="2.9979995"
     inkscape:cy="14.27533"
     inkscape:window-x="693"
     inkscape:window-y="28"
     inkscape:window-maximized="1"
     inkscape:current-layer="svg29"
     showguides="false">
    <inkscape:grid
       type="xygrid"
       id="grid899" />
  </sodipodi:namedview>
  <defs
     id="defs7">
    <linearGradient
       id="linearGradient857"
       inkscape:collect="always">
      <stop
         id="stop853"
         offset="0"
         style="stop-color:#01b6ed;stop-opacity:1" />
      <stop
         id="stop855"
         offset="1"
         style="stop-color:#00a5a5;stop-opacity:1" />
    </linearGradient>
    <linearGradient
       id="bg"
       x1="1"
       x2="47"
       gradientTransform="matrix(0 -1 1 0 -1.5e-6 48)"
       gradientUnits="userSpaceOnUse">
      <stop
         style="stop-color:#2684da"
         offset="0"
         id="stop2" />
      <stop
         style="stop-color:#3f96e5"
         offset="1"
         id="stop4" />
    </linearGradient>
    <linearGradient
       inkscape:collect="always"
       xlink:href="#linearGradient857"
       id="linearGradient849"
       x1="3.0531012"
       y1="29.63907"
       x2="46.416174"
       y2="29.63907"
       gradientUnits="userSpaceOnUse"
       gradientTransform="matrix(1.0393436,0,0,1.0393436,-1.5483774,0.34046948)" />
    <linearGradient
       inkscape:collect="always"
       xlink:href="#linearGradient857"
       id="linearGradient851"
       x1="3.0509131"
       y1="15.737046"
       x2="26.93618"
       y2="15.737046"
       gradientUnits="userSpaceOnUse"
       gradientTransform="matrix(1.0393436,0,0,1.0393436,-1.5483774,0.34046948)" />
    <linearGradient
       inkscape:collect="always"
       xlink:href="#linearGradient857"
       id="linearGradient1004"
       x1="18.500999"
       y1="1029.3622"
       x2="29.500999"
       y2="1029.3622"
       gradientUnits="userSpaceOnUse" />
    <linearGradient
       inkscape:collect="always"
       xlink:href="#linearGradient857"
       id="linearGradient1059"
       x1="13.997"
       y1="24.967035"
       x2="33.778"
       y2="24.967035"
       gradientUnits="userSpaceOnUse" />
  </defs>
  <path
     d="m 2.0177156,14.889872 -0.00212,5.41522 22.1465824,0.0029 1.844266,-3.613518 -1.843761,-3.609184 H 18.428159 3.8689535 c -0.9218886,0 -1.8512379,0.902276 -1.8512379,1.804572 z"
     style="fill:none;stroke:url(#linearGradient851);stroke-width:1.30541563;stroke-miterlimit:4;stroke-dasharray:none;stroke-opacity:1"
     id="path21"
     inkscape:connector-curvature="0"
     sodipodi:nodetypes="ccccccsc" />
  <path
     d="M 46.301103,18.619338 V 45.592494 H 2.0177156 V 20.307982 H 24.162178 l 1.84376,-3.609183 h 18.450703 c 0.92189,0 1.84376,0.966301 1.84376,1.926137 z"
     style="fill:none;stroke:url(#linearGradient849);stroke-width:1.30541563;stroke-miterlimit:4;stroke-dasharray:none;stroke-opacity:1"
     id="path25"
     inkscape:connector-curvature="0"
     sodipodi:nodetypes="ccccccscc" />
  <g
     id="g986"
     transform="translate(0.999,-996.7577)"
     style="fill:none;stroke:url(#linearGradient1004);stroke-width:0.60000002;stroke-miterlimit:4;stroke-dasharray:none;stroke-opacity:1" />
  <g
     id="g1041"
     transform="translate(0.003,-997.3632)">
    <path
       id="path1039"
       style="color:#000000;display:inline;visibility:visible;fill:none;fill-opacity:1;fill-rule:nonzero;stroke:url(#linearGradient1059)"
       transform="translate(0,1004.3622)"
       d="m 30.278,15.938 c 0.146,-0.002 0.296,-0.004 0.438,0.031 0.004,0.01 0.027,-0.01 0.031,0 0.909,0.847 1.632,1.872 2.156,3 0.006,0.013 -0.006,0.05 0,0.063 0.13,0.374 0.272,0.774 0.406,1.25 0.075,0.266 0.179,0.552 0.281,0.844 0.112,0.578 0.188,1.172 0.188,1.781 0,5.308 -4.429,11.09 -9.906,11.09 -5.127,0 -9.357,-5.258 -9.875,-10.09 0.138,-0.065 2.867,-3.278 8.344,-0.844 6.652,2.957 9.598,-0.029 9.875,-1.281 0.277,-1.252 -0.08,-3.563 -1.188,-3.563 -1.107,0 -2.497,0.524 -2.313,-0.906 0.115,-0.894 0.83,-1.363 1.563,-1.375 z m -3.781,1.063 c 0.276,0 0.5,0.224 0.5,0.5 0,0.276 -0.224,0.5 -0.5,0.5 -0.276,0 -0.5,-0.224 -0.5,-0.5 0,-0.276 0.224,-0.5 0.5,-0.5 z m 2.5,3 c 0.552,0 1,0.448 1,1 0,0.552 -0.448,1 -1,1 -0.552,0 -1,-0.448 -1,-1 0,-0.552 0.448,-1 1,-1 z"
       inkscape:connector-curvature="0"
       sodipodi:nodetypes="cccccccssccssccssssssssss" />
  </g>
</svg>
