<?xml version="1.0" encoding="UTF-8" standalone="no"?>
<svg
   xmlns:dc="http://purl.org/dc/elements/1.1/"
   xmlns:cc="http://creativecommons.org/ns#"
   xmlns:rdf="http://www.w3.org/1999/02/22-rdf-syntax-ns#"
   xmlns:svg="http://www.w3.org/2000/svg"
   xmlns="http://www.w3.org/2000/svg"
   xmlns:xlink="http://www.w3.org/1999/xlink"
   xmlns:sodipodi="http://sodipodi.sourceforge.net/DTD/sodipodi-0.dtd"
   xmlns:inkscape="http://www.inkscape.org/namespaces/inkscape"
   version="1.1"
   viewBox="0 0 48 48"
   id="svg29"
   sodipodi:docname="folder-publicshare.svg"
   inkscape:version="0.92.4 5da689c313, 2019-01-14">
  <metadata
     id="metadata33">
    <rdf:RDF>
      <cc:Work
         rdf:about="">
        <dc:format>image/svg+xml</dc:format>
        <dc:type
           rdf:resource="http://purl.org/dc/dcmitype/StillImage" />
      </cc:Work>
    </rdf:RDF>
  </metadata>
  <sodipodi:namedview
     pagecolor="#ffffff"
     bordercolor="#666666"
     borderopacity="1"
     objecttolerance="10"
     gridtolerance="10"
     guidetolerance="10"
     inkscape:pageopacity="0"
     inkscape:pageshadow="2"
     inkscape:window-width="1366"
     inkscape:window-height="768"
     id="namedview31"
     showgrid="false"
     inkscape:zoom="9.8333334"
     inkscape:cx="16.312322"
     inkscape:cy="21.852527"
     inkscape:window-x="0"
     inkscape:window-y="0"
     inkscape:window-maximized="1"
     inkscape:current-layer="svg29" />
  <defs
     id="defs7">
    <linearGradient
       id="linearGradient857"
       inkscape:collect="always">
      <stop
         id="stop853"
         offset="0"
         style="stop-color:#01b6ed;stop-opacity:1" />
      <stop
         id="stop855"
         offset="1"
         style="stop-color:#00a5a5;stop-opacity:1" />
    </linearGradient>
    <linearGradient
       id="bg"
       x1="1"
       x2="47"
       gradientTransform="matrix(0 -1 1 0 -1.5e-6 48)"
       gradientUnits="userSpaceOnUse">
      <stop
         style="stop-color:#2684da"
         offset="0"
         id="stop2" />
      <stop
         style="stop-color:#3f96e5"
         offset="1"
         id="stop4" />
    </linearGradient>
    <linearGradient
       inkscape:collect="always"
       xlink:href="#linearGradient857"
       id="linearGradient849"
       x1="3.0531012"
       y1="29.63907"
       x2="46.416174"
       y2="29.63907"
       gradientUnits="userSpaceOnUse"
       gradientTransform="matrix(1.0393436,0,0,1.0393436,-1.5483774,0.34046948)" />
    <linearGradient
       inkscape:collect="always"
       xlink:href="#linearGradient857"
       id="linearGradient851"
       x1="3.0509131"
       y1="15.737046"
       x2="26.93618"
       y2="15.737046"
       gradientUnits="userSpaceOnUse"
       gradientTransform="matrix(1.0393436,0,0,1.0393436,-1.5483774,0.34046948)" />
    <linearGradient
       inkscape:collect="always"
       xlink:href="#linearGradient857"
       id="linearGradient835"
       x1="16.002001"
       y1="1030.1907"
       x2="31.875999"
       y2="1030.1907"
       gradientUnits="userSpaceOnUse" />
  </defs>
  <path
     d="m 2.0177156,14.889872 -0.00212,5.41522 22.1465824,0.0029 1.844266,-3.613518 -1.843761,-3.609184 H 18.428159 3.8689535 c -0.9218886,0 -1.8512379,0.902276 -1.8512379,1.804572 z"
     style="fill:none;stroke:url(#linearGradient851);stroke-width:1.30541563;stroke-miterlimit:4;stroke-dasharray:none;stroke-opacity:1"
     id="path21"
     inkscape:connector-curvature="0"
     sodipodi:nodetypes="ccccccsc" />
  <path
     d="M 46.301103,18.619338 V 45.592494 H 2.0177156 V 20.307982 H 24.162178 l 1.84376,-3.609183 h 18.450703 c 0.92189,0 1.84376,0.966301 1.84376,1.926137 z"
     style="fill:none;stroke:url(#linearGradient849);stroke-width:1.30541563;stroke-miterlimit:4;stroke-dasharray:none;stroke-opacity:1"
     id="path25"
     inkscape:connector-curvature="0"
     sodipodi:nodetypes="ccccccscc" />
  <g
     transform="translate(0.60754489,-998.1579)"
     id="g4"
     style="fill-opacity:1.0;fill:url(#linearGradient835);stroke:none">
    <path
       inkscape:connector-curvature="0"
       d="m 26.126,18.656 c 1.592,0 2.906,1.208 2.906,2.719 -0.018,0.529 -0.033,1.118 -0.375,2.563 -0.063,0.189 -0.184,0.381 -0.344,0.594 -0.143,0.191 -0.332,0.395 -0.5,0.594 -0.037,0.362 -0.035,0.731 0,1.094 0.465,0.38 1.316,0.742 2.094,1.063 0.4,0.165 0.772,0.318 1.063,0.5 0.145,0.091 0.276,0.166 0.375,0.281 0.093,0.108 0.147,0.256 0.156,0.406 10e-4,0.01 0,0.021 0,0.031 l 0.375,2.656 v 0.031 c 0,0.329 -0.219,0.599 -0.531,0.813 -0.312,0.214 -0.735,0.382 -1.25,0.531 -1.029,0.299 -2.426,0.469 -3.969,0.469 -1.543,0 -2.939,-0.17 -3.969,-0.469 -0.515,-0.149 -0.938,-0.317 -1.25,-0.531 -0.312,-0.214 -0.531,-0.483 -0.531,-0.813 v -0.031 l 0.344,-2.656 c 0,-0.015 0.03,-0.016 0.031,-0.031 0.02,-0.315 0.221,-0.566 0.5,-0.75 0.292,-0.193 0.662,-0.341 1.063,-0.5 0.768,-0.306 1.621,-0.641 2.094,-1 0.061,-0.421 0.053,-0.764 0,-1.156 -0.172,-0.186 -0.359,-0.387 -0.5,-0.563 -0.157,-0.197 -0.251,-0.379 -0.313,-0.563 h -0.031 c -0.303,-1.387 -0.332,-2.044 -0.344,-2.563 0,-1.511 1.314,-2.719 2.906,-2.719 z m -5.406,0.5 c 0.593,0 1.145,0.229 1.563,0.563 l 0.125,0.063 -0.063,0.125 c -0.076,0.231 -0.125,0.477 -0.125,0.688 0.011,0.502 0.044,1.067 0.344,2.438 0.044,0.133 0.035,0.251 0.063,0.406 l 0.031,0.063 -0.031,0.063 c -0.08,0.19 -0.262,0.523 -0.5,0.844 -10e-4,0.01 0.001,0.021 0,0.031 -0.032,0.308 -0.03,0.629 0,0.938 0.156,0.122 0.346,0.255 0.594,0.375 l 0.344,0.156 -0.344,0.188 c -0.628,0.326 -1.412,0.575 -2.031,0.844 -0.31,0.134 -0.575,0.27 -0.75,0.406 -0.175,0.136 -0.25,0.266 -0.25,0.375 l -0.344,2.656 v 0.031 c -0.003,0.07 -0.008,0.151 -0.031,0.219 -0.013,0.039 -0.032,0.082 -0.063,0.125 -0.015,0.021 -0.058,0.04 -0.094,0.063 -0.029,0.018 -0.077,0.031 -0.125,0.031 h -0.031 c -0.883,-0.091 -1.613,-0.246 -2.125,-0.469 -0.26,-0.113 -0.472,-0.253 -0.625,-0.406 -0.153,-0.153 -0.25,-0.328 -0.25,-0.531 V 29.41 l 0.313,-2.156 c 0,-0.015 0.03,-0.016 0.031,-0.031 0.019,-0.255 0.18,-0.476 0.406,-0.625 0.239,-0.158 0.516,-0.277 0.844,-0.406 0.633,-0.25 1.332,-0.516 1.719,-0.813 0.047,-0.337 0.042,-0.655 0,-0.969 -0.139,-0.15 -0.292,-0.326 -0.406,-0.469 -0.131,-0.163 -0.231,-0.285 -0.281,-0.438 v -0.031 c -0.249,-1.138 -0.272,-1.638 -0.281,-2.063 0,-1.24 1.067,-2.25 2.375,-2.25 z"
       transform="translate(0,1004.3622)"
       style="color:#000000;display:inline;visibility:visible;fill:url(#linearGradient835);fill-opacity:1.0;fill-rule:nonzero;stroke:none"
       id="path2"
       sodipodi:nodetypes="scccccccccccsscscsscccccccccccsccccccccccccccccsccccccsccssccccccccccccc" />
  </g>
</svg>
