<?xml version="1.0" encoding="UTF-8" standalone="no"?>
<svg
   xmlns:dc="http://purl.org/dc/elements/1.1/"
   xmlns:cc="http://creativecommons.org/ns#"
   xmlns:rdf="http://www.w3.org/1999/02/22-rdf-syntax-ns#"
   xmlns:svg="http://www.w3.org/2000/svg"
   xmlns="http://www.w3.org/2000/svg"
   xmlns:sodipodi="http://sodipodi.sourceforge.net/DTD/sodipodi-0.dtd"
   xmlns:inkscape="http://www.inkscape.org/namespaces/inkscape"
   version="1.1"
   viewBox="0 0 48 48"
   id="svg59"
   sodipodi:docname="inkscape.svg"
   inkscape:version="0.92.4 5da689c313, 2019-01-14">
  <metadata
     id="metadata63">
    <rdf:RDF>
      <cc:Work
         rdf:about="">
        <dc:format>image/svg+xml</dc:format>
        <dc:type
           rdf:resource="http://purl.org/dc/dcmitype/StillImage" />
      </cc:Work>
    </rdf:RDF>
  </metadata>
  <sodipodi:namedview
     pagecolor="#ffffff"
     bordercolor="#666666"
     borderopacity="1"
     objecttolerance="10"
     gridtolerance="10"
     guidetolerance="10"
     inkscape:pageopacity="0"
     inkscape:pageshadow="2"
     inkscape:window-width="1366"
     inkscape:window-height="689"
     id="namedview61"
     showgrid="false"
     inkscape:zoom="4.9166667"
     inkscape:cx="-9.0508475"
     inkscape:cy="24"
     inkscape:window-x="0"
     inkscape:window-y="18"
     inkscape:window-maximized="1"
     inkscape:current-layer="svg59" />
  <defs
     id="defs7">
    <linearGradient
       id="linearGradient3764"
       x1="1"
       x2="47"
       gradientTransform="matrix(0 -1 1 0 -1.5e-6 48)"
       gradientUnits="userSpaceOnUse">
      <stop
         style="stop-color:#e1ddb1"
         offset="0"
         id="stop2" />
      <stop
         style="stop-color:#e7e4c0"
         offset="1"
         id="stop4" />
    </linearGradient>
  </defs>
  <g
     transform="matrix(1.6628993,0,0,1.6628993,-14.5781,-14.578145)"
     id="g21">
    <g
       style="opacity:0.1"
       id="g19">
      <path
         transform="translate(-1,-1)"
         d="m 26,12 c -0.551,0 -1,0.449 -1,1 0,0.07613 0.02674,0.14352 0.04297,0.21484 l -11.012,12.791 c -0.01096,-3.58e-4 -0.0202,-0.0059 -0.03125,-0.0059 -0.551,0 -1,0.449 -1,1 0,0.551 0.449,1 1,1 0.23975,0 0.45246,-0.0949 0.625,-0.23633 l 4.2305,0.55469 -1.6602,1.7207 c -0.0653,-0.01348 -0.1261,-0.03906 -0.19531,-0.03906 -0.551,0 -1,0.449 -1,1 0,0.551 0.449,1 1,1 0.16553,0 0.31541,-0.04945 0.45312,-0.12109 l 5.584,2.3008 c 0.0226,0.11905 0.06018,0.22792 0.12109,0.32812 l -1.0879,1.5059 c -0.02444,-0.0018 -0.04542,-0.01367 -0.07031,-0.01367 -0.551,0 -1,0.449 -1,1 0,0.551 0.449,1 1,1 0.32601,0 0.60244,-0.16766 0.78516,-0.41016 l 2.4434,0.02148 c 0.18341,0.23101 0.4546,0.38867 0.77148,0.38867 0.551,0 1,-0.449 1,-1 0,-0.551 -0.449,-1 -1,-1 -0.45344,0 -0.82342,0.30984 -0.94531,0.72461 l -2.1094,0.002 c -0.01,-0.03423 -0.008,-0.07284 -0.02148,-0.10547 l 1.1309,-1.6328 c 0.52421,-0.03014 0.94531,-0.45671 0.94531,-0.98828 0,-0.551 -0.449,-1 -1,-1 -0.19118,0 -0.35959,0.06849 -0.51172,0.16211 l -5.502,-2.4395 1.6914,-1.7871 c 0.10234,0.03548 0.20807,0.06445 0.32227,0.06445 0.551,0 1,-0.449 1,-1 0,-0.551 -0.449,-1 -1,-1 -0.32291,0 -0.59824,0.16378 -0.78125,0.40234 l -4.2695,-0.6543 c -0.008,-0.02999 -0.0069,-0.06298 -0.01758,-0.0918 l 10.924,-12.686 c 0.04856,0.0074 0.09398,0.0292 0.14453,0.0293 l 9.041,10.799 c -0.0143,0.06716 -0.04102,0.12984 -0.04102,0.20117 0,0.551 0.449,1 1,1 0.551,0 1,-0.449 1,-1 0,-0.551 -0.449,-1 -1,-1 -0.03953,0 -0.07298,0.01894 -0.11133,0.02344 l -8.9551,-10.689 c 0.03797,-0.10548 0.06641,-0.21567 0.06641,-0.33398 0,-0.551 -0.449,-1 -1,-1 z m -0.23438,3.5059 c -1.6947,2.4376 -3.4641,4.898 -5.9395,6.8398 0.0028,0.0041 0.44039,0.65446 1.0176,0.64648 0.598,-0.004 1.1724,-0.39841 1.5664,-0.81641 0.422,-0.445 0.71484,-1.6562 0.71484,-1.6562 0.285,0.875 0.54734,1.6721 1.1523,2.2891 0.625,-0.293 0.91441,-0.94934 1.1914,-1.5273 0.84,0.672 1.645,1.4037 2.082,2.3457 0.254,-0.25 0.50406,-0.63855 0.53906,-1.0605 -0.031,-0.684 -0.1818,-1.3629 -0.3418,-2.0469 0.773,0.25 1.5097,0.55069 2.2637,0.92969 -0.191,-0.387 -0.33616,-0.80512 -0.41016,-1.2031 -2.043,-1.383 -2.4919,-3.3462 -3.8359,-4.7402 z m -5.6172,7.9316 c -1.609,0.254 -2.2854,2.2341 -4.1484,2.4961 0.695,0.18 1.648,0.266 1.668,0.625 1.926,-0.559 3.3322,-0.1295 5.1992,0.5625 -0.563,1.438 -1.6293,2.344 -3.1953,2.957 1.867,1.063 4.1129,1.0119 5.7969,2.5469 0.535,0.379 0.71497,0.996 0.79297,1.375 1.062,-0.16829 1.8301,-0.65234 2.5566,-1.5078 -0.645,-0.207 -1.1412,-0.65594 -1.3672,-1.3359 0.176,-1.867 3.03,-2.082 4.543,-3.125 -3.879,-0.434 -6.0385,-1.4339 -8.3535,-4.1289 -1.164,0.195 -2.3402,0.05916 -3.4922,-0.46484 z"
         id="path17"
         inkscape:connector-curvature="0" />
    </g>
  </g>
  <path
     d="m 15.061417,19.251878 c 0,0 0.733339,1.090862 1.696157,1.077558 0.994414,-0.0067 1.948918,-0.661834 2.604101,-1.356925 0.701743,-0.739991 1.188973,-2.753762 1.188973,-2.753762 0.473926,1.455037 0.909606,2.780368 1.91566,3.806377 1.039312,-0.48723 1.51989,-1.578092 1.980513,-2.539247 1.396835,1.117468 2.735469,2.331384 3.462156,3.897835 0.422376,-0.415724 0.838101,-1.059266 0.896303,-1.76101 -0.05155,-1.137423 -0.299322,-2.266532 -0.565386,-3.403955 1.285421,0.415725 2.507652,0.916258 3.761478,1.546497 C 31.683758,17.121704 31.442638,16.426612 31.319583,15.764778 27.92228,13.464988 27.175638,10.197391 24.940702,7.8793094 22.122088,11.933458 19.178756,16.02419 15.061417,19.253541"
     style="fill:#7c6f7c;stroke-width:1.66289926"
     id="path23"
     inkscape:connector-curvature="0" />
  <path
     d="m 25.763837,38.634632 c 1.767662,-0.279367 3.046431,-1.084211 4.255359,-2.507652 -1.07257,-0.344221 -1.897368,-1.090862 -2.273183,-2.221634 0.29267,-3.104633 5.038585,-3.462156 7.554551,-5.19656 -6.450386,-0.721698 -10.043911,-2.384598 -13.893523,-6.866111 -1.935615,0.324265 -3.891184,0.09811 -5.806844,-0.773248 -2.675605,0.422376 -3.799725,3.714917 -6.8977067,4.150596 1.155715,0.299322 2.7404577,0.442331 2.7737157,1.039312 3.202744,-0.929561 5.540781,-0.214514 8.645414,0.936212 -0.936213,2.39125 -2.708863,3.897836 -5.312964,4.917194 3.104633,1.767662 6.839505,1.682854 9.639828,4.235404 0.889651,0.630239 1.188973,1.656248 1.318679,2.286487"
     style="fill:#7c6f7c;stroke-width:1.66289926"
     id="path25"
     inkscape:connector-curvature="0" />
  <path
     d="m 43.623375,23.668538 c 0,0.916258 -0.746642,1.662899 -1.662899,1.662899 -0.916258,0 -1.662899,-0.746641 -1.662899,-1.662899 0,-0.916257 0.746641,-1.662899 1.662899,-1.662899 0.916257,0 1.662899,0.746642 1.662899,1.662899"
     style="fill:#369aff;stroke-width:1.66289926;fill-opacity:1"
     id="path27"
     inkscape:connector-curvature="0" />
  <path
     d="M 40.954422,24.034376 24.468438,4.3456485 26.059833,3.2863816 42.597366,23.026659 m -1.642944,1.006054"
     style="fill:#369aff;stroke-width:1.66289926;fill-opacity:1"
     id="path29"
     inkscape:connector-curvature="0" />
  <path
     d="m 12.028289,33.645934 c 0,0.916257 -0.746642,1.662899 -1.662899,1.662899 -0.9162579,0 -1.6628997,-0.746642 -1.6628997,-1.662899 0,-0.916258 0.7466418,-1.6629 1.6628997,-1.6629 0.916257,0 1.662899,0.746642 1.662899,1.6629"
     style="fill:#ff0095;stroke-width:1.66289926;fill-opacity:1"
     id="path31"
     inkscape:connector-curvature="0" />
  <path
     d="m 23.668584,38.634632 c 0,0.916257 -0.746642,1.662899 -1.662899,1.662899 -0.916258,0 -1.6629,-0.746642 -1.6629,-1.662899 0,-0.916258 0.746642,-1.6629 1.6629,-1.6629 0.916257,0 1.662899,0.746642 1.662899,1.6629"
     style="fill:#ff0095;stroke-width:1.66289926;fill-opacity:1"
     id="path33"
     inkscape:connector-curvature="0" />
  <path
     d="m 20.342785,43.623329 c 0,0.916258 -0.746642,1.6629 -1.662899,1.6629 -0.916258,0 -1.662899,-0.746642 -1.662899,-1.6629 0,-0.916257 0.746641,-1.662899 1.662899,-1.662899 0.916257,0 1.662899,0.746642 1.662899,1.662899"
     style="fill:#ff0095;stroke-width:1.66289926;fill-opacity:1"
     id="path35"
     inkscape:connector-curvature="0" />
  <path
     d="m 26.994382,43.623329 c 0,0.916258 -0.746641,1.6629 -1.662899,1.6629 -0.916257,0 -1.662899,-0.746642 -1.662899,-1.6629 0,-0.916257 0.746642,-1.662899 1.662899,-1.662899 0.916258,0 1.662899,0.746642 1.662899,1.662899"
     style="fill:#ff0095;stroke-width:1.66289926;fill-opacity:1"
     id="path37"
     inkscape:connector-curvature="0" />
  <path
     d="m 17.016987,28.657236 c 0,0.916257 -0.746642,1.662899 -1.6629,1.662899 -0.916257,0 -1.662899,-0.746642 -1.662899,-1.662899 0,-0.916258 0.746642,-1.662899 1.662899,-1.662899 0.916258,0 1.6629,0.746641 1.6629,1.662899"
     style="fill:#ff0095;stroke-width:1.66289926;fill-opacity:1"
     id="path39"
     inkscape:connector-curvature="0" />
  <path
     d="M 22.038943,39.609091 9.8598682,34.587135 10.885877,32.689767 22.968503,38.042639 m -0.92956,1.57144"
     style="fill:#ff0095;stroke-width:1.66289926;fill-opacity:1"
     id="path41"
     inkscape:connector-curvature="0" />
  <path
     d="m 19.270215,44.356668 3.846286,-5.547432 -1.584743,-0.610284 -3.683322,5.098449 m 1.421779,1.059267"
     style="fill:#ff0095;stroke-width:1.66289926;fill-opacity:1"
     id="path43"
     inkscape:connector-curvature="0" />
  <path
     d="m 18.445417,44.591137 7.424845,0.06485 -0.129706,-1.493284 -7.275184,0.0067 m -0.01995,1.421779"
     style="fill:#ff0095;stroke-width:1.66289926;fill-opacity:1"
     id="path45"
     inkscape:connector-curvature="0" />
  <path
     d="m 10.722913,34.542236 5.598982,-5.918258 -1.714449,-0.63689 -5.3063119,5.502533 m 1.4217789,1.052615"
     style="fill:#ff0095;stroke-width:1.66289926;fill-opacity:1"
     id="path47"
     inkscape:connector-curvature="0" />
  <path
     d="M 15.886215,27.942189 5.2785807,26.317537 4.6416903,28.031986 14.8336,29.363968 m 1.052615,-1.421779"
     style="fill:#ff0095;stroke-width:1.66289926;fill-opacity:1"
     id="path49"
     inkscape:connector-curvature="0" />
  <path
     d="M 4.5651969,26.344143 24.832613,2.8041408 25.89188,4.3955354 5.5729139,27.993739 M 4.5668598,26.344143"
     style="fill:#66ff63;stroke-width:1.66289926;fill-opacity:1"
     id="path51"
     inkscape:connector-curvature="0" />
  <path
     d="m 26.994382,3.7137467 c 0,0.9162575 -0.746641,1.6628993 -1.662899,1.6628993 -0.916257,0 -1.662899,-0.7466418 -1.662899,-1.6628993 0,-0.9162575 0.746642,-1.6628992 1.662899,-1.6628992 0.916258,0 1.662899,0.7466417 1.662899,1.6628992"
     style="fill:#369aff;stroke-width:1.66289926;fill-opacity:1"
     id="path53"
     inkscape:connector-curvature="0" />
  <path
     d="m 7.039591,26.994337 c 0,0.916257 -0.7466417,1.662899 -1.6628992,1.662899 -0.9162575,0 -1.6628993,-0.746642 -1.6628993,-1.662899 0,-0.916258 0.7466418,-1.6629 1.6628993,-1.6629 0.9162575,0 1.6628992,0.746642 1.6628992,1.6629"
     style="fill:#66ff63;stroke-width:1.66289926;fill-opacity:1"
     id="path55"
     inkscape:connector-curvature="0" />
</svg>
