<?xml version="1.0" encoding="UTF-8" standalone="no"?>
<svg
   xmlns:dc="http://purl.org/dc/elements/1.1/"
   xmlns:cc="http://creativecommons.org/ns#"
   xmlns:rdf="http://www.w3.org/1999/02/22-rdf-syntax-ns#"
   xmlns:svg="http://www.w3.org/2000/svg"
   xmlns="http://www.w3.org/2000/svg"
   xmlns:xlink="http://www.w3.org/1999/xlink"
   xmlns:sodipodi="http://sodipodi.sourceforge.net/DTD/sodipodi-0.dtd"
   xmlns:inkscape="http://www.inkscape.org/namespaces/inkscape"
   viewBox="0 0 48 48"
   version="1.1"
   id="svg49"
   sodipodi:docname="kile.svg"
   inkscape:version="0.92.4 5da689c313, 2019-01-14">
  <metadata
     id="metadata53">
    <rdf:RDF>
      <cc:Work
         rdf:about="">
        <dc:format>image/svg+xml</dc:format>
        <dc:type
           rdf:resource="http://purl.org/dc/dcmitype/StillImage" />
      </cc:Work>
    </rdf:RDF>
  </metadata>
  <sodipodi:namedview
     pagecolor="#ffffff"
     bordercolor="#666666"
     borderopacity="1"
     objecttolerance="10"
     gridtolerance="10"
     guidetolerance="10"
     inkscape:pageopacity="0"
     inkscape:pageshadow="2"
     inkscape:window-width="1366"
     inkscape:window-height="689"
     id="namedview51"
     showgrid="true"
     inkscape:zoom="9.8333333"
     inkscape:cx="18.318512"
     inkscape:cy="27.754157"
     inkscape:window-x="0"
     inkscape:window-y="18"
     inkscape:window-maximized="1"
     inkscape:current-layer="svg49">
    <inkscape:grid
       type="xygrid"
       id="grid860" />
  </sodipodi:namedview>
  <defs
     id="defs7">
    <linearGradient
       inkscape:collect="always"
       id="linearGradient866">
      <stop
         style="stop-color:#4b9fff;stop-opacity:1"
         offset="0"
         id="stop862" />
      <stop
         style="stop-color:#2d609a;stop-opacity:0;"
         offset="1"
         id="stop864" />
    </linearGradient>
    <linearGradient
       id="linearGradient3764"
       x1="1"
       x2="47"
       gradientUnits="userSpaceOnUse"
       gradientTransform="matrix(0,-1,1,0,-1.5e-6,47.999998)">
      <stop
         style="stop-color:#327dca;stop-opacity:1"
         id="stop2" />
      <stop
         offset="1"
         style="stop-color:#4086d0;stop-opacity:1"
         id="stop4" />
    </linearGradient>
    <linearGradient
       inkscape:collect="always"
       xlink:href="#linearGradient866"
       id="linearGradient868"
       x1="8"
       y1="24"
       x2="48"
       y2="24"
       gradientUnits="userSpaceOnUse" />
  </defs>
  <path
     d="M 8,5.3470888 V 42.652911 h 4.304518 v -13.34544 l 5.492565,-5.095115 16.030025,18.440555 h 5.739357 L 21.005384,21.236499 38.131626,5.3528281 H 32.392269 L 12.304518,24.005739 V 5.3528281 H 8"
     style="fill:url(#linearGradient868);fill-opacity:1;fill-rule:evenodd;stroke:none;stroke-width:1.43483937"
     id="path25"
     inkscape:connector-curvature="0" />
  <g
     id="g33">
    <g
       id="g31">
      <g
         transform="translate(1,1)"
         id="g29">
        <g
           style="opacity:0.1"
           id="g27">
          <!-- color: #4086d0 -->
        </g>
      </g>
    </g>
  </g>
  <g
     id="g47"
     transform="matrix(1.4348393,0,0,1.4348393,-10.652911,-10.436144)">
    <g
       id="g45">
      <!-- color: #4086d0 -->
      <g
         id="g43">
        <path
           d="m 27.898,17.996 v 0.375 c 0.852,0 1.129,0.033 1.469,0.518 l 2.988,4.41 -2.695,3.957 c -0.664,0.965 -1.668,0.982 -1.965,0.982 v 0.375 h 0.9 c -0.307,1.931 -0.689,3.02 -3.17,3.02 h -2.148 c -0.617,0 -0.645,-0.078 -0.645,-0.613 v -4.352 h 1.457 c 1.461,0 1.602,0.539 1.602,1.852 h 0.25 v -4.047 h -0.25 c 0,1.289 -0.141,1.82 -1.602,1.82 h -1.457 v -3.859 c 0,-0.523 0.027,-0.602 0.645,-0.602 h 2.117 c 2.395,0 2.676,0.957 2.891,3.01 h 0.281 L 28.195,21.401 H 21.441 L 21.199,18.02 h -8.938 l -0.262,3.441 h 0.277 c 0.199,-2.578 0.422,-3.03 2.82,-3.03 h 0.854 c 0.297,0.047 0.297,0.238 0.297,0.594 v 8.473 c 0,0.566 -0.047,0.734 -1.352,0.734 h -0.441 v 0.375 h 4.555 v -0.375 h -0.441 c -1.285,0 -1.332,-0.172 -1.332,-0.734 v -8.473 c 0,-0.344 0,-0.527 0.281,-0.594 h 0.848 c 2.346,0 2.602,0.447 2.805,2.969 h -0.814 v 0.43 c 1.098,0 1.273,0 1.273,0.699 v 8.398 c 0,0.699 -0.176,0.699 -1.273,0.699 v 0.375 h 8.05 l 0.484,-3.387 h 1.646 v -0.375 c -0.477,-0.047 -0.615,-0.357 -0.615,-0.607 0,-0.203 0.076,-0.313 0.154,-0.422 l 2.479,-3.635 2.689,3.979 c 0.121,0.172 0.121,0.219 0.121,0.266 0,0.125 -0.137,0.391 -0.68,0.422 v 0.379 h 3.313 v -0.379 c -0.992,0 -1.146,-0.074 -1.451,-0.516 l -3.406,-5.01 2.289,-3.328 c 0.23,-0.324 0.699,-0.996 1.969,-1.016 V 17.997 H 34.55 v 0.375 c 0.496,0.047 0.621,0.359 0.621,0.609 0,0.188 -0.078,0.313 -0.188,0.465 l -2.043,2.98 -2.289,-3.367 c -0.109,-0.172 -0.125,-0.219 -0.125,-0.266 0,-0.141 0.168,-0.408 0.684,-0.424 v -0.375 h -3.313 z"
           style="opacity:0.1;fill:#000000;fill-opacity:1;fill-rule:nonzero;stroke:none"
           id="path35"
           inkscape:connector-curvature="0" />
        <path
           d="M 20.2,17.02 H 11.262 L 11,20.461 h 0.277 c 0.199,-2.578 0.422,-3.03 2.82,-3.03 h 0.855 c 0.297,0.047 0.297,0.238 0.297,0.594 v 8.473 c 0,0.566 -0.047,0.734 -1.352,0.734 h -0.441 v 0.375 h 4.554 v -0.375 h -0.441 c -1.285,0 -1.332,-0.172 -1.332,-0.734 v -8.473 c 0,-0.344 0,-0.527 0.281,-0.594 h 0.848 c 2.367,0 2.605,0.449 2.809,3.03 h 0.27"
           style="fill:#f9f9f9;fill-opacity:1;fill-rule:nonzero;stroke:none"
           id="path37"
           inkscape:connector-curvature="0" />
        <path
           d="m 27.969,27.07 h -0.277 c -0.34,2.309 -0.543,3.563 -3.266,3.563 h -2.148 c -0.617,0 -0.645,-0.078 -0.645,-0.613 v -4.352 h 1.457 c 1.461,0 1.602,0.539 1.602,1.852 h 0.25 v -4.047 h -0.25 c 0,1.289 -0.141,1.82 -1.602,1.82 h -1.457 v -3.859 c 0,-0.523 0.027,-0.602 0.645,-0.602 h 2.117 c 2.395,0 2.676,0.957 2.891,3.01 h 0.281 l -0.371,-3.441 h -7.84 v 0.43 c 1.098,0 1.273,0 1.273,0.699 v 8.398 c 0,0.699 -0.176,0.699 -1.273,0.699 v 0.375 h 8.05"
           style="fill:#f9f9f9;fill-opacity:1;fill-rule:nonzero;stroke:none"
           id="path39"
           inkscape:connector-curvature="0" />
        <path
           d="m 32.14,21.719 2.289,-3.328 c 0.23,-0.324 0.699,-0.996 1.969,-1.016 V 17 h -2.847 v 0.375 c 0.496,0.047 0.621,0.359 0.621,0.609 0,0.188 -0.078,0.313 -0.188,0.465 l -2.043,2.98 -2.289,-3.367 c -0.109,-0.172 -0.125,-0.219 -0.125,-0.266 0,-0.141 0.168,-0.406 0.684,-0.422 v -0.375 h -3.313 v 0.375 c 0.852,0 1.129,0.031 1.469,0.516 l 2.988,4.41 -2.695,3.957 c -0.664,0.965 -1.668,0.984 -1.965,0.984 v 0.375 h 2.843 v -0.375 c -0.477,-0.047 -0.617,-0.359 -0.617,-0.609 0,-0.203 0.078,-0.313 0.156,-0.422 l 2.477,-3.633 2.691,3.977 c 0.121,0.172 0.121,0.219 0.121,0.266 0,0.125 -0.137,0.391 -0.68,0.422 v 0.379 h 3.313 v -0.379 c -0.992,0 -1.148,-0.074 -1.453,-0.516"
           style="fill:#f9f9f9;fill-opacity:1;fill-rule:nonzero;stroke:none"
           id="path41"
           inkscape:connector-curvature="0" />
      </g>
    </g>
  </g>
</svg>
