<?xml version="1.0" encoding="UTF-8" standalone="no"?>
<svg
   xmlns:dc="http://purl.org/dc/elements/1.1/"
   xmlns:cc="http://creativecommons.org/ns#"
   xmlns:rdf="http://www.w3.org/1999/02/22-rdf-syntax-ns#"
   xmlns:svg="http://www.w3.org/2000/svg"
   xmlns="http://www.w3.org/2000/svg"
   xmlns:xlink="http://www.w3.org/1999/xlink"
   xmlns:sodipodi="http://sodipodi.sourceforge.net/DTD/sodipodi-0.dtd"
   xmlns:inkscape="http://www.inkscape.org/namespaces/inkscape"
   version="1.1"
   width="64"
   viewBox="0 0 64 64.000001"
   height="64"
   id="svg2"
   inkscape:version="0.92.4 5da689c313, 2019-01-14"
   sodipodi:docname="spectacle.svg">
  <sodipodi:namedview
     pagecolor="#ffffff"
     bordercolor="#666666"
     borderopacity="1"
     objecttolerance="10"
     gridtolerance="10"
     guidetolerance="10"
     inkscape:pageopacity="0"
     inkscape:pageshadow="2"
     inkscape:window-width="1366"
     inkscape:window-height="689"
     id="namedview37"
     showgrid="true"
     inkscape:zoom="7.375"
     inkscape:cx="23.03532"
     inkscape:cy="28.580634"
     inkscape:window-x="0"
     inkscape:window-y="18"
     inkscape:window-maximized="1"
     inkscape:current-layer="svg2">
    <inkscape:grid
       type="xygrid"
       id="grid4173" />
  </sodipodi:namedview>
  <defs
     id="defs4">
    <linearGradient
       y2="962.86"
       y1="1002.6"
       gradientTransform="translate(58.788,-954.44)"
       x2="11"
       gradientUnits="userSpaceOnUse"
       x1="11"
       id="linearGradient5203-4">
      <stop
         offset="0"
         stop-color="#b6b2b6"
         id="stop7328-7-5" />
      <stop
         offset="1"
         stop-color="#dddbdb"
         id="stop7330-0-4" />
    </linearGradient>
    <linearGradient
       x1="20"
       y1="1000.4"
       gradientTransform="translate(0,-1044.42)"
       x2="20"
       gradientUnits="userSpaceOnUse"
       y2="1032.4"
       id="linearGradient7024-1">
      <stop
         style="stop-color:#e4720c;stop-opacity:1"
         offset="0"
         stop-color="#60cc9f"
         id="stop7019-0" />
      <stop
         style="stop-color:#ec4040;stop-opacity:1"
         offset="1"
         stop-color="#0566af"
         id="stop7021-3" />
    </linearGradient>
    <linearGradient
       y2="44"
       y1="12"
       gradientTransform="matrix(-1,0,0,-1,64,56.06)"
       x2="14"
       gradientUnits="userSpaceOnUse"
       x1="14"
       id="linearGradient7015-5">
      <stop
         style="stop-color:#f7e385;stop-opacity:1"
         offset="0"
         stop-color="#9ce0c4"
         id="stop7011-3" />
      <stop
         style="stop-color:#f99133;stop-opacity:1"
         offset="1"
         stop-color="#37a4f5"
         id="stop7013-5" />
    </linearGradient>
    <linearGradient
       x1="35"
       y1="996.36"
       gradientTransform="translate(0,-988.38)"
       x2="35"
       gradientUnits="userSpaceOnUse"
       y2="1044.4"
       id="linearGradient4200">
      <stop
         offset="0"
         stop-color="#334545"
         id="stop5215" />
      <stop
         offset="1"
         stop-color="#172525"
         id="stop5217" />
    </linearGradient>
    <linearGradient
       y2="962.86"
       x2="11"
       y1="1002.6"
       x1="11"
       gradientTransform="translate(58.788,-950.42)"
       gradientUnits="userSpaceOnUse"
       id="linearGradient4232"
       xlink:href="#linearGradient5203-4" />
    <linearGradient
       y2="1044.4"
       x2="35"
       y1="996.36"
       x1="35"
       gradientTransform="translate(0,-984.36)"
       gradientUnits="userSpaceOnUse"
       id="linearGradient4234"
       xlink:href="#linearGradient4200" />
    <linearGradient
       inkscape:collect="always"
       xlink:href="#linearGradient7024-1"
       id="linearGradient856"
       x1="5.5001311"
       y1="32.038399"
       x2="58.50013"
       y2="32.038399"
       gradientUnits="userSpaceOnUse"
       gradientTransform="matrix(1.0991043,0,0,1.0991043,-2.8970856,-5.889589)" />
  </defs>
  <metadata
     id="metadata7">
    <rdf:RDF>
      <cc:Work
         rdf:about="">
        <dc:format>image/svg+xml</dc:format>
        <dc:type
           rdf:resource="http://purl.org/dc/dcmitype/StillImage" />
        <dc:title />
      </cc:Work>
    </rdf:RDF>
  </metadata>
  <rect
     style="color:#000000;clip-rule:nonzero;display:inline;overflow:visible;visibility:visible;opacity:1;isolation:auto;mix-blend-mode:normal;color-interpolation:sRGB;color-interpolation-filters:linearRGB;solid-color:#000000;solid-opacity:1;fill:#7a747c;fill-opacity:1;fill-rule:nonzero;stroke:none;stroke-width:2.19820881;stroke-linecap:butt;stroke-linejoin:miter;stroke-miterlimit:4;stroke-dasharray:none;stroke-dashoffset:0;stroke-opacity:1;color-rendering:auto;image-rendering:auto;shape-rendering:auto;text-rendering:auto;enable-background:accumulate"
     id="rect4183"
     width="19.783878"
     height="7.060348"
     x="22.129442"
     y="49.25716" />
  <rect
     x="19.931234"
     y="55.240387"
     width="24.180296"
     height="2.1982088"
     ry="1.910573e-05"
     style="color:#000000;isolation:auto;mix-blend-mode:normal;solid-color:#000000;fill:#cac6c9;stroke-width:1.0991044;color-rendering:auto;image-rendering:auto;shape-rendering:auto"
     id="rect6778-1" />
  <path
     id="rect6778-1-3"
     d="M 19.931236,56.338975 V 57.43808 H 44.111532 V 56.338975 Z"
     style="color:#000000;isolation:auto;mix-blend-mode:normal;solid-color:#000000;fill:#7a747c;stroke-width:1.0991044;color-rendering:auto;image-rendering:auto;shape-rendering:auto"
     inkscape:connector-curvature="0" />
  <path
     style="color:#000000;isolation:auto;mix-blend-mode:normal;solid-color:#000000;fill:none;fill-opacity:1;stroke:url(#linearGradient856);stroke-width:1.0991044;stroke-opacity:1;color-rendering:auto;image-rendering:auto;shape-rendering:auto"
     d="m 58.652902,46.910714 c 1.217807,0 2.198209,-0.980401 2.198209,-2.198208 V 13.937584 c 0,-1.217808 -0.980391,-2.198209 -2.198209,-2.198209 H 48.82537 a 24.180295,24.180295 0 0 1 7.628883,17.58567 24.180295,24.180295 0 0 1 -7.60789,17.585669 h 9.806209 z m -13.234316,0 a 21.982087,21.982087 0 0 0 8.837899,-17.585669 21.982087,21.982087 0 0 0 -8.831524,-17.58567 h -4.128126 a 19.783878,19.783878 0 0 1 10.76133,17.58567 19.783878,19.783878 0 0 1 -10.731324,17.585669 h 4.091525 z m -22.166736,0 A 19.783878,19.783878 0 0 1 12.49052,29.325045 19.783878,19.783878 0 0 1 23.221844,11.739375 h -4.091525 a 21.982087,21.982087 0 0 0 -8.837898,17.58567 21.982087,21.982087 0 0 0 8.831522,17.585669 h 4.128126 z m -7.528425,0 A 24.180295,24.180295 0 0 1 8.0941018,29.325045 24.180295,24.180295 0 0 1 15.701993,11.739375 H 5.8958932 c -1.2178077,0 -2.1982087,0.980401 -2.1982087,2.198209 v 30.774922 c 0,1.217807 0.98039,2.198208 2.1982087,2.198208 z m 16.984459,-0.01538 a 17.585669,17.585669 0 0 0 10.666917,-3.943476 l -6.264015,-9.15554 a 6.594626,6.594626 0 0 1 -2.243272,1.584249 l -2.15952,11.514213 z m -2.223928,-0.07694 2.045763,-10.907292 a 6.594626,6.594626 0 0 1 -0.254992,0 6.594626,6.594626 0 0 1 -2.451552,-0.476572 l -9.655852,6.605397 A 17.585669,17.585669 0 0 0 30.484287,46.80982 Z M 44.999827,41.432338 A 17.585669,17.585669 0 0 0 49.767632,31.113287 L 38.86034,29.067414 a 6.594626,6.594626 0 0 1 0.0087,0.257631 6.594626,6.594626 0 0 1 -0.476572,2.447266 L 45,41.432338 Z M 18.646603,40.423471 27.800054,34.159346 A 6.594626,6.594626 0 0 1 26.217892,31.918272 L 14.702577,29.758641 a 17.585669,17.585669 0 0 0 3.942487,10.66461 z m 13.627795,-6.704536 a 4.3964174,4.3964174 0 0 0 4.396417,-4.396418 4.3964174,4.3964174 0 0 0 -4.396417,-4.396417 4.3964174,4.3964174 0 0 0 -4.396419,4.396417 4.3964174,4.3964174 0 0 0 4.396419,4.396418 z m -6.586054,-4.140987 a 6.594626,6.594626 0 0 1 -0.0087,-0.255431 6.594626,6.594626 0 0 1 0.478714,-2.449354 l -6.609683,-9.65794 A 17.585669,17.585669 0 0 0 14.78087,27.534274 l 10.907292,2.043674 z M 49.845559,28.886722 A 17.585669,17.585669 0 0 0 45.902082,18.222003 l -9.155649,6.264015 a 6.594626,6.594626 0 0 1 1.582051,2.241184 l 11.517514,2.15952 z M 27.438118,24.85092 a 6.594626,6.594626 0 0 1 2.243272,-1.584248 l 2.157433,-11.514218 a 17.585669,17.585669 0 0 0 -10.66472,3.943477 l 6.264015,9.155539 z m 7.283765,-1.646458 9.660138,-6.607485 A 17.585669,17.585669 0 0 0 34.06286,11.829172 l -2.043675,10.907292 a 6.594626,6.594626 0 0 1 0.255454,-0.01099 6.594626,6.594626 0 0 1 2.447265,0.476571 z"
     id="path6780-2-3"
     inkscape:connector-curvature="0" />
  <path
     id="rect6768-2-7-2"
     d="m 1.246462,47.524674 v 1.099104 c 0,2.435615 1.9608021,4.396418 4.3964173,4.396418 H 58.399888 c 2.435615,0 4.396417,-1.960803 4.396417,-4.396418 v -1.099104 c 0,2.435615 -1.960802,4.396418 -4.396417,4.396418 H 5.6428793 c -2.4356152,0 -4.3964173,-1.960803 -4.3964173,-4.396418 z"
     style="color:#000000;isolation:auto;mix-blend-mode:normal;solid-color:#000000;fill:#98929a;stroke-width:1.0991044;color-rendering:auto;image-rendering:auto;shape-rendering:auto"
     inkscape:connector-curvature="0" />
  <path
     id="rect6768-2-7-0"
     d="m 5.6428793,9.056022 c -2.4356152,0 -4.3964173,1.960802 -4.3964173,4.396417 v 1.099104 c 0,-2.435614 1.9608021,-4.396416 4.3964173,-4.396416 H 58.399888 c 2.435615,0 4.396417,1.960802 4.396417,4.396416 v -1.099104 c 0,-2.435615 -1.960802,-4.396417 -4.396417,-4.396417 z"
     style="color:#000000;isolation:auto;mix-blend-mode:normal;solid-color:#000000;fill:#e7e5e5;stroke-width:1.0991044;color-rendering:auto;image-rendering:auto;shape-rendering:auto"
     inkscape:connector-curvature="0" />
</svg>
